# xmcd
#
# Track frame offsets: 
#        150
#        12805
#        26507
#        39185
#        52943
#        62321
#        75146
#        86798
#        98889
#        113976
#        126981
#        136975
#        151770
#        163238
#        174715
#        183922
#        196865
#        211372
#        221120
#        234642
#        247800
#        258525
#        270821
#        283839
#
# Disc length: 3945 seconds
#
# Revision: 0
# Processed by: cddbd v1.5.2PL0 Copyright (c) Steve Scherf et al.
# Submitted via: ExactAudioCopy v1.3
#
DISCID=3d0f6718
DTITLE=Professor Longhair - Singles 1949-1957
DYEAR=2012
DGENRE=Blues
TTITLE0=East St. Louis Baby
TTITLE1=Been Foolin' Around
TTITLE2=K.C Blues
TTITLE3=Hadacol Bounce
TTITLE4=Rockin' with Fess
TTITLE5=Hey Now Baby
TTITLE6=In the Night
TTITLE7=Her Mind Is Gone
TTITLE8=Ball the Wall
TTITLE9=She Walks Right in
TTITLE10=No Buts -No Maybes
TTITLE11=Longhair's Blues Rhumba
TTITLE12=Look What You're Doin' to Me
TTITLE13=Professor Longhair Blues
TTITLE14=Misery
TTITLE15=Willie Mae
TTITLE16=She Walks Right in
TTITLE17=Looka No Hair
TTITLE18=Hey Now Baby
TTITLE19=Her Mind Is Gone
TTITLE20=Professor Longhairs Boogie
TTITLE21=Longhair Stomp
TTITLE22=She Ain't Got No Hair
TTITLE23=Tipitina
EXTD=
EXTT0=
EXTT1=
EXTT2=
EXTT3=
EXTT4=
EXTT5=
EXTT6=
EXTT7=
EXTT8=
EXTT9=
EXTT10=
EXTT11=
EXTT12=
EXTT13=
EXTT14=
EXTT15=
EXTT16=
EXTT17=
EXTT18=
EXTT19=
EXTT20=
EXTT21=
EXTT22=
EXTT23=
PLAYORDER=
